<mxfile host="app.diagrams.net" modified="2024-07-09T19:20:41.650Z" agent="Mozilla/5.0 (X11; Linux x86_64; rv:127.0) Gecko/20100101 Firefox/127.0" etag="rPuNe_hxqqpzU28Ijn2B" version="24.5.3" type="github">
  <diagram name="Page-1" id="9XYwBkQ3PnOIRZvQMGw8">
    <mxGraphModel dx="1434" dy="785" grid="1" gridSize="10" guides="1" tooltips="1" connect="1" arrows="1" fold="1" page="1" pageScale="1" pageWidth="850" pageHeight="1100" math="0" shadow="0">
      <root>
        <mxCell id="0" />
        <mxCell id="1" parent="0" />
        <mxCell id="HacctHpb2E48w1RIXcn1-1" value="Redis PubSub" style="shape=process;whiteSpace=wrap;html=1;backgroundOutline=1;" vertex="1" parent="1">
          <mxGeometry x="320" y="620" width="120" height="60" as="geometry" />
        </mxCell>
        <mxCell id="HacctHpb2E48w1RIXcn1-2" value="GO Server" style="rounded=1;whiteSpace=wrap;html=1;" vertex="1" parent="1">
          <mxGeometry x="150" y="400" width="460" height="60" as="geometry" />
        </mxCell>
        <mxCell id="HacctHpb2E48w1RIXcn1-3" value="UI" style="ellipse;whiteSpace=wrap;html=1;aspect=fixed;" vertex="1" parent="1">
          <mxGeometry x="325" y="80" width="80" height="80" as="geometry" />
        </mxCell>
        <mxCell id="HacctHpb2E48w1RIXcn1-4" value="" style="endArrow=classic;html=1;rounded=0;" edge="1" parent="1" source="HacctHpb2E48w1RIXcn1-3">
          <mxGeometry width="50" height="50" relative="1" as="geometry">
            <mxPoint x="360" y="120" as="sourcePoint" />
            <mxPoint x="160" y="397" as="targetPoint" />
            <Array as="points" />
          </mxGeometry>
        </mxCell>
        <mxCell id="HacctHpb2E48w1RIXcn1-5" value="1.1 UI creates a connection with websocket" style="edgeLabel;html=1;align=center;verticalAlign=middle;resizable=0;points=[];" vertex="1" connectable="0" parent="HacctHpb2E48w1RIXcn1-4">
          <mxGeometry x="-0.2593" y="-3" relative="1" as="geometry">
            <mxPoint x="-64" as="offset" />
          </mxGeometry>
        </mxCell>
        <mxCell id="HacctHpb2E48w1RIXcn1-7" value="&lt;div&gt;1.3 GO Server stores this connection in a&lt;/div&gt;&lt;div&gt;&amp;nbsp;map&amp;lt;connectionId, connection&amp;gt;&lt;br&gt;&lt;/div&gt;" style="edgeLabel;html=1;align=center;verticalAlign=middle;resizable=0;points=[];" vertex="1" connectable="0" parent="HacctHpb2E48w1RIXcn1-4">
          <mxGeometry x="-0.0499" y="1" relative="1" as="geometry">
            <mxPoint x="-76" y="31" as="offset" />
          </mxGeometry>
        </mxCell>
        <mxCell id="HacctHpb2E48w1RIXcn1-12" value="1.2 Go server creates a new connectionId" style="edgeLabel;html=1;align=center;verticalAlign=middle;resizable=0;points=[];" vertex="1" connectable="0" parent="HacctHpb2E48w1RIXcn1-4">
          <mxGeometry x="-0.0466" relative="1" as="geometry">
            <mxPoint x="-85" as="offset" />
          </mxGeometry>
        </mxCell>
        <mxCell id="HacctHpb2E48w1RIXcn1-8" value="" style="endArrow=classic;html=1;rounded=0;entryX=0.48;entryY=-0.05;entryDx=0;entryDy=0;entryPerimeter=0;" edge="1" parent="1" target="HacctHpb2E48w1RIXcn1-2">
          <mxGeometry width="50" height="50" relative="1" as="geometry">
            <mxPoint x="360" y="160" as="sourcePoint" />
            <mxPoint x="410" y="110" as="targetPoint" />
          </mxGeometry>
        </mxCell>
        <mxCell id="HacctHpb2E48w1RIXcn1-9" value="&lt;div&gt;2.1 UI sends message&amp;nbsp;&lt;/div&gt;&lt;div&gt;with action = &quot;create&quot; or&amp;nbsp;&lt;/div&gt;&lt;div&gt;action = &quot;join&quot;&lt;br&gt;&lt;/div&gt;" style="edgeLabel;html=1;align=center;verticalAlign=middle;resizable=0;points=[];" vertex="1" connectable="0" parent="HacctHpb2E48w1RIXcn1-8">
          <mxGeometry x="-0.6934" y="1" relative="1" as="geometry">
            <mxPoint x="37" y="14" as="offset" />
          </mxGeometry>
        </mxCell>
        <mxCell id="HacctHpb2E48w1RIXcn1-10" value="&lt;div&gt;2.2 Go Server updates a&lt;/div&gt;&lt;div&gt;&amp;nbsp;map&amp;lt;gameId, connectionId&amp;gt; by creating a new&amp;nbsp;&lt;/div&gt;&lt;div&gt;gameId string or using existing one&amp;nbsp; &lt;/div&gt;" style="edgeLabel;html=1;align=center;verticalAlign=middle;resizable=0;points=[];" vertex="1" connectable="0" parent="HacctHpb2E48w1RIXcn1-8">
          <mxGeometry x="-0.1533" relative="1" as="geometry">
            <mxPoint x="55" y="10" as="offset" />
          </mxGeometry>
        </mxCell>
        <mxCell id="HacctHpb2E48w1RIXcn1-11" value="&lt;div&gt;2.3 Message indicating arrival of new&amp;nbsp;&lt;/div&gt;&lt;div&gt;player is sent to redis-pub-sub &lt;/div&gt;" style="edgeLabel;html=1;align=center;verticalAlign=middle;resizable=0;points=[];" vertex="1" connectable="0" parent="HacctHpb2E48w1RIXcn1-8">
          <mxGeometry x="0.2751" y="2" relative="1" as="geometry">
            <mxPoint x="11" y="239" as="offset" />
          </mxGeometry>
        </mxCell>
        <mxCell id="HacctHpb2E48w1RIXcn1-13" value="" style="endArrow=classic;html=1;rounded=0;entryX=0.5;entryY=0;entryDx=0;entryDy=0;" edge="1" parent="1" target="HacctHpb2E48w1RIXcn1-1">
          <mxGeometry width="50" height="50" relative="1" as="geometry">
            <mxPoint x="370" y="460" as="sourcePoint" />
            <mxPoint x="420" y="410" as="targetPoint" />
          </mxGeometry>
        </mxCell>
        <mxCell id="HacctHpb2E48w1RIXcn1-15" value="" style="endArrow=classic;html=1;rounded=0;entryX=0.965;entryY=1.033;entryDx=0;entryDy=0;entryPerimeter=0;" edge="1" parent="1" target="HacctHpb2E48w1RIXcn1-2">
          <mxGeometry width="50" height="50" relative="1" as="geometry">
            <mxPoint x="440" y="630" as="sourcePoint" />
            <mxPoint x="490" y="580" as="targetPoint" />
          </mxGeometry>
        </mxCell>
        <mxCell id="HacctHpb2E48w1RIXcn1-16" value="2.4 redis sends messsage to channel subs" style="edgeLabel;html=1;align=center;verticalAlign=middle;resizable=0;points=[];" vertex="1" connectable="0" parent="HacctHpb2E48w1RIXcn1-15">
          <mxGeometry x="0.4661" relative="1" as="geometry">
            <mxPoint as="offset" />
          </mxGeometry>
        </mxCell>
        <mxCell id="HacctHpb2E48w1RIXcn1-17" value="&lt;div&gt;2.5 Go server sends message to&amp;nbsp;&lt;/div&gt;&lt;div&gt;all connections in map[gameId]&lt;/div&gt;" style="edgeLabel;html=1;align=center;verticalAlign=middle;resizable=0;points=[];" vertex="1" connectable="0" parent="HacctHpb2E48w1RIXcn1-15">
          <mxGeometry x="0.1491" y="-1" relative="1" as="geometry">
            <mxPoint x="111" y="-274" as="offset" />
          </mxGeometry>
        </mxCell>
        <mxCell id="HacctHpb2E48w1RIXcn1-20" value="" style="endArrow=classic;html=1;rounded=0;entryX=1;entryY=0.5;entryDx=0;entryDy=0;" edge="1" parent="1" target="HacctHpb2E48w1RIXcn1-3">
          <mxGeometry width="50" height="50" relative="1" as="geometry">
            <mxPoint x="600" y="400" as="sourcePoint" />
            <mxPoint x="650" y="350" as="targetPoint" />
            <Array as="points">
              <mxPoint x="660" y="230" />
            </Array>
          </mxGeometry>
        </mxCell>
      </root>
    </mxGraphModel>
  </diagram>
</mxfile>
